<svg xmlns="http://www.w3.org/2000/svg" version="1.1" xmlns:xlink="http://www.w3.org/1999/xlink" xmlns:svgjs="http://svgjs.dev/svgjs" width="1000" height="750" viewBox="0 0 1000 750"><rect width="1000" height="750" fill="#ffffff"></rect><g transform="matrix(0.834,0,0,0.834,82.8712437432942,91.66960323886644)"><svg viewBox="0 0 363 247" data-background-color="#ffffff" preserveAspectRatio="xMidYMid meet" height="680" width="1000" xmlns="http://www.w3.org/2000/svg" xmlns:xlink="http://www.w3.org/1999/xlink"><g id="tight-bounds" transform="matrix(1,0,0,1,0.056041392307207616,-0.09999999999999432)"><svg viewBox="0 0 362.8878447935469 247.2" height="247.2" width="362.8878447935469"><g><svg viewBox="0 0 362.88784479354695 247.20000000000002" height="247.2" width="362.8878447935469"><g><svg viewBox="0 0 362.88784479354695 247.20000000000002" height="247.20000000000002" width="362.88784479354695"><g><svg viewBox="0 0 362.88784479354695 247.20000000000002" height="247.20000000000002" width="362.88784479354695"><g><svg viewBox="0 0 362.88784479354695 247.20000000000002" height="247.20000000000002" width="362.88784479354695"><g transform="matrix(1,0,0,1,0,0)"><svg width="362.88784479354695" viewBox="2.499999999999995 -36.05 164.10370403393748 107.94999999999999" height="247.20000000000002" data-palette-color="#ffa458"><svg></svg><svg></svg><g class="undefined-text-0" data-fill-palette-color="primary" id="text-0"><path d="M22.75-35.6c0.833 0.333 1.25 0.8 1.25 1.4v0c0 0.6-0.417 1.367-1.25 2.3v0c-0.367-0.033-0.9-0.05-1.6-0.05v0c-1.533 0-3 0.207-4.4 0.62-1.4 0.42-2.85 1.063-4.35 1.93v0c-0.7 0.433-1.3 0.983-1.8 1.65v0c-0.367 0.4-0.55 0.867-0.55 1.4v0c0 0.9 0.5 1.767 1.5 2.6v0c0.967 1 2.55 2.817 4.75 5.45v0l1.15 1.2c1.633 1.767 2.927 3.267 3.88 4.5 0.947 1.233 1.753 2.65 2.42 4.25v0c0.267 0.7 0.4 1.333 0.4 1.9v0c0 1.433-0.55 2.75-1.65 3.95v0c-1.267 1.4-2.733 2.427-4.4 3.08-1.667 0.647-3.55 1.053-5.65 1.22v0c-0.267 0.033-0.583 0.067-0.95 0.1-0.367 0.033-0.783 0.05-1.25 0.05v0c-0.3 0-0.75-0.033-1.35-0.1v0c-0.733 0.033-1.5-0.09-2.3-0.37-0.8-0.287-1.533-0.697-2.2-1.23v0c-1.267-1.067-1.9-2.25-1.9-3.55v0c0-1.1 0.467-2.217 1.4-3.35v0c0.467 0.067 0.743 0.207 0.83 0.42 0.08 0.22 0.097 0.463 0.05 0.73-0.053 0.267-0.08 0.483-0.08 0.65v0c0 0.1 0.033 0.25 0.1 0.45v0c1.3 0.6 2.85 0.9 4.65 0.9v0c2 0 3.893-0.343 5.68-1.03 1.78-0.68 2.87-1.52 3.27-2.52v0c0.233-0.667-0.333-1.843-1.7-3.53-1.367-1.68-2.9-3.32-4.6-4.92v0c-1.6-1.433-3.05-2.85-4.35-4.25v0c-0.733-0.8-1.307-1.727-1.72-2.78-0.42-1.047-0.63-2.137-0.63-3.27v0c0-1.533 0.393-2.983 1.18-4.35 0.78-1.367 1.953-2.483 3.52-3.35v0c3-1.7 6.067-2.55 9.2-2.55v0c0.433 0 1.05 0.033 1.85 0.1v0c0.733 0.067 1.267 0.183 1.6 0.35zM34.8-26.7c0.033 3.233 0.127 5.89 0.28 7.97 0.147 2.087 0.503 4.297 1.07 6.63v0c1.4-0.5 2.683-0.75 3.85-0.75v0c1.967 0 3.667 0.583 5.1 1.75 1.433 1.167 2.4 2.617 2.9 4.35v0c0.4 1.267 0.6 2.967 0.6 5.1v0l-0.05 3.9c0 0.233-0.133 0.5-0.4 0.8-0.267 0.3-0.533 0.483-0.8 0.55v0c-0.1 0.033-0.25 0.05-0.45 0.05v0c-0.767 0-1.567-0.373-2.4-1.12-0.833-0.753-1.267-1.497-1.3-2.23v0l-0.1-2.6c0-0.6-0.033-1.467-0.1-2.6v0c-0.067-1.167-0.2-2-0.4-2.5v0c-0.2-0.567-0.45-1-0.75-1.3-0.3-0.3-0.633-0.45-1-0.45v0c-0.267 0-0.557 0.117-0.87 0.35-0.32 0.233-0.597 0.55-0.83 0.95v0c-0.7 1.1-1.617 3.267-2.75 6.5v0c-0.367 1.167-1.017 1.75-1.95 1.75v0c-0.1 0-0.317-0.033-0.65-0.1v0c-0.2-0.067-0.583-0.177-1.15-0.33-0.567-0.147-1.007-0.387-1.32-0.72-0.32-0.333-0.48-0.817-0.48-1.45v0c0-6.3-0.383-11.517-1.15-15.65v0c-0.367-2.067-0.55-4.45-0.55-7.15v0-3.35-1.75c0-0.467 0.25-0.867 0.75-1.2 0.5-0.333 1.067-0.5 1.7-0.5v0c0.533 0 0.983 0.117 1.35 0.35v0c0.667 0.4 1.143 0.9 1.43 1.5 0.28 0.6 0.42 1.35 0.42 2.25v0zM58.25-23.3c-0.067 0.2-0.307 0.417-0.72 0.65-0.42 0.233-0.763 0.45-1.03 0.65v0l-1.4-0.75c-1.367-0.733-2.3-1.317-2.8-1.75v0c-0.267-0.2-0.4-0.45-0.4-0.75v0c0-0.2 0.077-0.377 0.23-0.53 0.147-0.147 0.37-0.22 0.67-0.22v0c1.3 0 2.883 0.333 4.75 1v0c0.2 0.033 0.383 0.257 0.55 0.67 0.167 0.42 0.217 0.763 0.15 1.03zM53.75-14c0.1-0.433 0.167-0.75 0.2-0.95 0.033-0.2 0.05-0.417 0.05-0.65v0c0-0.467 0.143-0.833 0.43-1.1 0.28-0.267 0.82-0.4 1.62-0.4v0c0.933 0 1.76 0.29 2.48 0.87 0.713 0.587 1.153 1.347 1.32 2.28v0c0.1 0.467 0.167 0.983 0.2 1.55 0.033 0.567 0.05 0.933 0.05 1.1v0l0.7 8.55c0.1 0.9-0.023 1.59-0.37 2.07-0.353 0.487-1.013 0.73-1.98 0.73v0c-0.833 0-1.54-0.233-2.12-0.7-0.587-0.467-0.947-1.067-1.08-1.8v0l-1.3-10.6zM72.8-10.95c0.133 0.267 0.283 0.7 0.45 1.3v0c0.367 1.133 0.583 1.767 0.65 1.9v0c0.7-1.267 1.35-2.517 1.95-3.75v0c0.967-2 1.717-3.4 2.25-4.2v0c0.967-1.467 2.117-2.767 3.45-3.9v0c0.267-0.267 0.583-0.4 0.95-0.4v0c0.333 0 0.61 0.133 0.83 0.4 0.213 0.267 0.353 0.6 0.42 1v0c0.033 0.133 0.05 0.35 0.05 0.65v0c0 0.733-0.133 1.467-0.4 2.2v0c-0.5 1.3-1.733 4.483-3.7 9.55v0l-2.15 5.55c-0.3 0.833-0.773 1.477-1.42 1.93-0.653 0.447-1.347 0.67-2.08 0.67v0c-1.1 0-2.067-0.467-2.9-1.4v0c-0.5-0.6-1.017-1.633-1.55-3.1v0c-1.533-4.7-2.817-8.733-3.85-12.1v0c-0.1-0.267-0.24-0.61-0.42-1.03-0.187-0.413-0.28-0.753-0.28-1.02v0c0-0.467 0.25-0.883 0.75-1.25v0c0.5-0.367 1.033-0.55 1.6-0.55v0c0.633 0 1.417 0.317 2.35 0.95v0c0.667 0.5 1.15 1.067 1.45 1.7 0.3 0.633 0.583 1.467 0.85 2.5v0c0.267 1.067 0.517 1.867 0.75 2.4zM104.05-2.55c-0.3-0.133-0.6-0.2-0.9-0.2v0c-0.3 0-0.557 0.073-0.77 0.22-0.22 0.153-0.463 0.38-0.73 0.68v0c-0.4 0.4-0.817 0.733-1.25 1v0c-0.4 0.233-1.133 0.45-2.2 0.65v0c-0.467 0.067-0.85 0.1-1.15 0.1v0c-1.4 0-2.857-0.31-4.37-0.93-1.52-0.613-2.597-1.353-3.23-2.22v0c-0.667-0.933-0.983-1.933-0.95-3v0c0.033-1.6 0.7-3.2 2-4.8v0c1.267-1.533 2.427-2.617 3.48-3.25 1.047-0.633 2.487-1.033 4.32-1.2v0c0.4 0 0.977-0.067 1.73-0.2 0.747-0.133 1.12-0.317 1.12-0.55v0c0-0.467-0.207-0.893-0.62-1.28-0.42-0.38-1.263-0.57-2.53-0.57v0c-0.467 0-1.167 0.033-2.1 0.1v0c-0.933 0.067-1.583 0.1-1.95 0.1v0c-1.133 0-1.95-0.183-2.45-0.55v0c-0.133-0.067-0.2-0.383-0.2-0.95v0c0-1 0.35-1.633 1.05-1.9v0c1.433-0.533 2.917-0.817 4.45-0.85v0c1.933 0 3.727 0.423 5.38 1.27 1.647 0.853 2.853 1.913 3.62 3.18v0c0.767 1.267 1.267 3.017 1.5 5.25v0c0.267 2.5 0.4 5.683 0.4 9.55v0c0 1.067-0.15 1.683-0.45 1.85v0c-0.267 0.167-0.517 0.25-0.75 0.25v0c-0.3 0-0.573-0.09-0.82-0.27-0.253-0.187-0.53-0.447-0.83-0.78v0c-0.3-0.367-0.567-0.6-0.8-0.7zM96.15-3.15c1.567-0.467 3.1-1.217 4.6-2.25v0c0.333-0.233 0.633-0.533 0.9-0.9 0.267-0.367 0.433-0.6 0.5-0.7v0c0.067-0.1 0.127-0.393 0.18-0.88 0.047-0.48 0.053-0.87 0.02-1.17v0c-0.033-0.1-0.09-0.367-0.17-0.8-0.087-0.433-0.213-0.817-0.38-1.15v0c-0.167-0.267-0.433-0.517-0.8-0.75-0.367-0.233-0.7-0.333-1-0.3v0c-0.633 0.033-1.317 0.267-2.05 0.7-0.733 0.433-1.417 1.017-2.05 1.75v0c-0.633 0.767-1.123 1.54-1.47 2.32-0.353 0.787-0.53 1.513-0.53 2.18v0c0.067 0.9 0.317 1.5 0.75 1.8v0c0.233 0.167 0.517 0.25 0.85 0.25v0c0.267 0 0.483-0.033 0.65-0.1zM138.05-13.05c-0.067-1.267-0.6-2.2-1.6-2.8v0c-0.8 0.2-1.45 0.45-1.95 0.75-0.5 0.3-0.867 0.59-1.1 0.87-0.233 0.287-0.65 0.83-1.25 1.63v0c-0.2 0.267-0.407 0.633-0.62 1.1-0.22 0.467-0.347 0.75-0.38 0.85v0c-0.1 0.233-0.15 0.483-0.15 0.75v0c0 0.2 0.043 0.51 0.13 0.93 0.08 0.413 0.103 0.737 0.07 0.97v0c-0.033 0.5-0.017 1.283 0.05 2.35v0l0.05 1.55c0 0.467-0.017 0.817-0.05 1.05v0c-0.067 0.533-0.233 1-0.5 1.4-0.267 0.4-0.633 0.6-1.1 0.6v0c-0.167 0-0.383-0.05-0.65-0.15v0c-0.233-0.067-0.617-0.183-1.15-0.35-0.533-0.167-0.95-0.427-1.25-0.78-0.3-0.347-0.45-0.853-0.45-1.52v0c0-1.733-0.167-4.333-0.5-7.8v0c-0.067-0.367-0.133-0.983-0.2-1.85v0c-0.033-0.367-0.2-0.65-0.5-0.85-0.3-0.2-0.667-0.3-1.1-0.3v0c-0.7 0-1.233 0.183-1.6 0.55v0c-1.533 0.867-2.65 1.85-3.35 2.95-0.7 1.1-1.05 2.517-1.05 4.25v0l0.05 1.7c0 1.1-0.283 2.117-0.85 3.05v0c-0.167 0.3-0.507 0.557-1.02 0.77-0.52 0.22-0.963 0.297-1.33 0.23v0c-0.333-0.033-0.673-0.26-1.02-0.68-0.353-0.413-0.53-0.787-0.53-1.12v0c-0.1-2.8-0.15-5.583-0.15-8.35v0c0-2.5 0.033-4.367 0.1-5.6v0c0.033-0.633 0.25-1.133 0.65-1.5 0.4-0.367 0.883-0.55 1.45-0.55v0c0.733 0 1.383 0.267 1.95 0.8v0c0.3 0.567 0.55 0.973 0.75 1.22 0.2 0.253 0.417 0.38 0.65 0.38v0c0.2 0 0.433-0.11 0.7-0.33 0.267-0.213 0.633-0.57 1.1-1.07v0c1.1-1.2 2.25-1.8 3.45-1.8v0c1.3 0 2.867 0.65 4.7 1.95v0c0.133 0.1 0.317 0.24 0.55 0.42 0.233 0.187 0.433 0.28 0.6 0.28v0c0.233 0 0.6-0.267 1.1-0.8v0c1.867-1.733 4.233-2.683 7.1-2.85v0c0.9-0.033 1.81 0.307 2.73 1.02 0.913 0.72 1.487 1.58 1.72 2.58v0c0.4 1.7 0.683 3.7 0.85 6v0c0.2 3.467 0.283 6.067 0.25 7.8v0c-0.033 0.8-0.25 1.423-0.65 1.87-0.4 0.453-0.917 0.68-1.55 0.68v0c-0.5 0-1.033-0.15-1.6-0.45v0c-0.233-0.1-0.45-0.283-0.65-0.55-0.2-0.267-0.3-0.5-0.3-0.7v0l-0.3-5.3c-0.033-0.567-0.067-1.293-0.1-2.18-0.033-0.88-0.1-1.903-0.2-3.07z" fill="#000000" fill-rule="nonzero" stroke="none" stroke-width="1" stroke-linecap="butt" stroke-linejoin="miter" stroke-miterlimit="10" stroke-dasharray="" stroke-dashoffset="0" font-family="none" font-weight="none" font-size="none" text-anchor="none" style="mix-blend-mode: normal" data-fill-palette-color="primary" opacity="1"></path><path d="M4 40.05c-0.033-0.233-0.05-0.617-0.05-1.15v0c0-1.3 0.133-2.567 0.4-3.8 0.267-1.233 0.65-2.583 1.15-4.05v0c0.5-1.367 1.45-2.733 2.85-4.1 1.4-1.367 2.967-2.493 4.7-3.38 1.733-0.88 3.3-1.32 4.7-1.32v0c1.433 0 2.833 0.523 4.2 1.57 1.367 1.053 2.233 2.247 2.6 3.58v0c0.067 0.4 0.1 0.667 0.1 0.8v0c0 0.5-0.14 0.873-0.42 1.12-0.287 0.253-0.663 0.38-1.13 0.38v0c-0.367 0-0.65-0.017-0.85-0.05v0c-0.1 0-0.25-0.067-0.45-0.2v0c-0.967-0.533-1.9-0.8-2.8-0.8v0c-1.7 0-3.383 0.883-5.05 2.65v0c-2.833 2.967-4.25 6.5-4.25 10.6v0c0 1.467 0.15 2.883 0.45 4.25v0c0.333 1.533 0.927 2.657 1.78 3.37 0.847 0.72 1.987 1.08 3.42 1.08v0c0.5 0 1.05-0.05 1.65-0.15v0c2.1-0.267 4.033-0.91 5.8-1.93 1.767-1.013 3.717-2.37 5.85-4.07v0c0.5-0.4 1.383-1.233 2.65-2.5v0l1-1.05c0.433-0.433 0.81-0.743 1.13-0.93 0.313-0.18 0.603-0.27 0.87-0.27v0c0.433 0 0.967 0.217 1.6 0.65v0c0.7 0.5 1.05 1.133 1.05 1.9v0c0 0.533-0.183 1.033-0.55 1.5v0c-0.133 0.233-0.5 0.773-1.1 1.62-0.6 0.853-1.183 1.613-1.75 2.28-0.567 0.667-1.133 1.233-1.7 1.7v0c-3.067 2.7-6.267 4.517-9.6 5.45v0c-1.467 0.4-2.933 0.6-4.4 0.6v0c-2.7 0-5.09-0.683-7.17-2.05-2.087-1.367-3.713-3.16-4.88-5.38-1.167-2.213-1.767-4.52-1.8-6.92v0zM44.6 28.7c0.033 3.233 0.127 5.89 0.28 7.97 0.147 2.087 0.503 4.297 1.07 6.63v0c1.4-0.5 2.683-0.75 3.85-0.75v0c1.967 0 3.667 0.583 5.1 1.75 1.433 1.167 2.4 2.617 2.9 4.35v0c0.4 1.267 0.6 2.967 0.6 5.1v0l-0.05 3.9c0 0.233-0.133 0.5-0.4 0.8-0.267 0.3-0.533 0.483-0.8 0.55v0c-0.1 0.033-0.25 0.05-0.45 0.05v0c-0.767 0-1.567-0.373-2.4-1.12-0.833-0.753-1.267-1.497-1.3-2.23v0l-0.1-2.6c0-0.6-0.033-1.467-0.1-2.6v0c-0.067-1.167-0.2-2-0.4-2.5v0c-0.2-0.567-0.45-1-0.75-1.3-0.3-0.3-0.633-0.45-1-0.45v0c-0.267 0-0.557 0.117-0.87 0.35-0.32 0.233-0.597 0.55-0.83 0.95v0c-0.7 1.1-1.617 3.267-2.75 6.5v0c-0.367 1.167-1.017 1.75-1.95 1.75v0c-0.1 0-0.317-0.033-0.65-0.1v0c-0.2-0.067-0.583-0.177-1.15-0.33-0.567-0.147-1.007-0.387-1.32-0.72-0.32-0.333-0.48-0.817-0.48-1.45v0c0-6.3-0.383-11.517-1.15-15.65v0c-0.367-2.067-0.55-4.45-0.55-7.15v0-3.35-1.75c0-0.467 0.25-0.867 0.75-1.2 0.5-0.333 1.067-0.5 1.7-0.5v0c0.533 0 0.983 0.117 1.35 0.35v0c0.667 0.4 1.143 0.9 1.43 1.5 0.28 0.6 0.42 1.35 0.42 2.25v0zM69 28.7c0.033 3.233 0.127 5.89 0.28 7.97 0.147 2.087 0.503 4.297 1.07 6.63v0c1.4-0.5 2.683-0.75 3.85-0.75v0c1.967 0 3.667 0.583 5.1 1.75 1.433 1.167 2.4 2.617 2.9 4.35v0c0.4 1.267 0.6 2.967 0.6 5.1v0l-0.05 3.9c0 0.233-0.133 0.5-0.4 0.8-0.267 0.3-0.533 0.483-0.8 0.55v0c-0.1 0.033-0.25 0.05-0.45 0.05v0c-0.767 0-1.567-0.373-2.4-1.12-0.833-0.753-1.267-1.497-1.3-2.23v0l-0.1-2.6c0-0.6-0.033-1.467-0.1-2.6v0c-0.067-1.167-0.2-2-0.4-2.5v0c-0.2-0.567-0.45-1-0.75-1.3-0.3-0.3-0.633-0.45-1-0.45v0c-0.267 0-0.557 0.117-0.87 0.35-0.32 0.233-0.597 0.55-0.83 0.95v0c-0.7 1.1-1.617 3.267-2.75 6.5v0c-0.367 1.167-1.017 1.75-1.95 1.75v0c-0.1 0-0.317-0.033-0.65-0.1v0c-0.2-0.067-0.583-0.177-1.15-0.33-0.567-0.147-1.007-0.387-1.32-0.72-0.32-0.333-0.48-0.817-0.48-1.45v0c0-6.3-0.383-11.517-1.15-15.65v0c-0.367-2.067-0.55-4.45-0.55-7.15v0-3.35-1.75c0-0.467 0.25-0.867 0.75-1.2 0.5-0.333 1.067-0.5 1.7-0.5v0c0.533 0 0.983 0.117 1.35 0.35v0c0.667 0.4 1.143 0.9 1.43 1.5 0.28 0.6 0.42 1.35 0.42 2.25v0zM95.2 47.6c-0.333 0.2-0.817 0.3-1.45 0.3v0c-0.233 0-0.517-0.017-0.85-0.05-0.333-0.033-0.617-0.033-0.85 0v0c0.267 1.1 0.9 1.99 1.9 2.67 1 0.687 2.117 1.03 3.35 1.03v0c1.067 0 2.017-0.233 2.85-0.7v0c1.233-0.633 2.3-1.383 3.2-2.25v0c0.633-0.633 1.233-0.95 1.8-0.95v0c0.367 0 0.683 0.183 0.95 0.55v0c0.267 0.433 0.4 0.967 0.4 1.6v0c0 0.667-0.133 1.183-0.4 1.55v0c-0.867 1.333-1.99 2.25-3.37 2.75-1.387 0.5-2.997 0.75-4.83 0.75v0c-1.9 0-3.733-0.417-5.5-1.25-1.767-0.833-3.273-1.977-4.52-3.43-1.253-1.447-2.08-3.053-2.48-4.82v0c-0.267-1.033-0.4-2.05-0.4-3.05v0c0-1.567 0.443-2.833 1.33-3.8 0.88-0.967 2.303-1.883 4.27-2.75v0c1.8-0.767 3.467-1.15 5-1.15v0c1.1 0 2.167 0.167 3.2 0.5v0c3.2 1 4.8 2.367 4.8 4.1v0c0 1.1-0.65 2.433-1.95 4v0c-0.633 0.733-1.383 1.383-2.25 1.95-0.867 0.567-1.707 1.077-2.52 1.53-0.82 0.447-1.38 0.753-1.68 0.92zM97.3 38.35c-0.033-0.167-0.157-0.31-0.37-0.43-0.22-0.113-0.347-0.187-0.38-0.22v0c-0.9-0.067-1.817 0.19-2.75 0.77-0.933 0.587-1.707 1.33-2.32 2.23-0.62 0.9-0.93 1.767-0.93 2.6v0l0.05 0.4c0.033 0.133 0.21 0.3 0.53 0.5 0.313 0.2 0.503 0.267 0.57 0.2v0c2.367-1.767 4.15-3.183 5.35-4.25v0c0.2-0.2 0.3-0.567 0.3-1.1v0c0-0.333-0.017-0.567-0.05-0.7zM107.2 36.75c-0.233-0.267-0.39-0.55-0.47-0.85-0.087-0.3-0.163-0.717-0.23-1.25v0c0.3-0.7 0.85-1.05 1.65-1.05v0c0.4 0.067 0.683 0.1 0.85 0.1v0c0.667 0 1.083-0.2 1.25-0.6 0.167-0.4 0.25-0.867 0.25-1.4 0-0.533 0-0.95 0-1.25v0l0.15-3c0.033-0.667 0.077-1.493 0.13-2.48 0.047-0.98 0.103-2.12 0.17-3.42v0c0.033-0.7 0.21-1.217 0.53-1.55 0.313-0.333 0.753-0.5 1.32-0.5v0c0.4 0 0.717 0.033 0.95 0.1v0c1.367 0.3 2.283 0.733 2.75 1.3 0.467 0.567 0.783 1.417 0.95 2.55v0c0.033 0.233 0 0.717-0.1 1.45v0l-0.9 7.8c-0.033 0.2-0.083 0.44-0.15 0.72-0.067 0.287-0.1 0.497-0.1 0.63v0c0 0.3 0.167 0.5 0.5 0.6 0.333 0.1 0.95 0.133 1.85 0.1v0c1.533-0.333 2.7-0.55 3.5-0.65v0c0.167-0.033 0.433-0.05 0.8-0.05v0c0.4 0 0.667 0.05 0.8 0.15v0c0.133 0.067 0.243 0.257 0.33 0.57 0.08 0.32 0.12 0.68 0.12 1.08v0c0 0.367-0.04 0.7-0.12 1-0.087 0.3-0.197 0.467-0.33 0.5v0c-0.9 0.267-1.967 0.483-3.2 0.65v0c-1.467 0.267-2.55 0.5-3.25 0.7v0c-0.367 0.1-0.733 0.35-1.1 0.75-0.367 0.4-0.567 0.767-0.6 1.1v0c-0.067 1.633-0.117 3.3-0.15 5v0c-0.033 1.3 0.017 2.6 0.15 3.9v0c0.1 1.1 0.317 1.89 0.65 2.37 0.333 0.487 0.833 0.73 1.5 0.73v0c0.533 0 1.3-0.183 2.3-0.55v0c0.533-0.233 1-0.35 1.4-0.35v0c0.633 0 1.083 0.35 1.35 1.05v0c0.1 0.233 0.15 0.467 0.15 0.7v0c0 0.433-0.157 0.783-0.47 1.05-0.32 0.267-0.747 0.5-1.28 0.7v0c-1 0.367-2.017 0.567-3.05 0.6v0c-1.4 0-2.717-0.343-3.95-1.03-1.233-0.68-2.207-1.637-2.92-2.87-0.72-1.233-1.03-2.65-0.93-4.25v0c0.033-0.633 0.05-1.633 0.05-3v0c0-2.167-0.083-4.367-0.25-6.6v0c-0.033-0.2-0.15-0.34-0.35-0.42-0.2-0.087-0.533-0.18-1-0.28v0c-0.767-0.133-1.267-0.317-1.5-0.55zM134.6 34.2c0.1 0.333 0.117 0.85 0.05 1.55v0l-0.6 5.9c0.167-0.133 0.417-0.61 0.75-1.43 0.333-0.813 0.65-1.48 0.95-2 0.3-0.513 0.533-0.853 0.7-1.02v0c1.567-1.5 3.333-2.4 5.3-2.7 1.967-0.3 4.133-0.433 6.5-0.4v0c0.233 0 0.493 0.09 0.78 0.27 0.28 0.187 0.42 0.337 0.42 0.45 0 0.12-0.1 0.303-0.3 0.55-0.2 0.253-0.383 0.413-0.55 0.48v0c-2 0.667-3.757 1.433-5.27 2.3-1.52 0.867-2.83 2-3.93 3.4v0c-2.6 3.3-4.1 6.7-4.5 10.2v0c-0.1 0.933-0.383 1.557-0.85 1.87-0.467 0.32-1.117 0.48-1.95 0.48v0c-0.933 0-1.767-0.4-2.5-1.2-0.733-0.8-1.1-1.683-1.1-2.65v0c0.033-3.533 0.05-8.833 0.05-15.9v0c0-0.967 0.217-1.643 0.65-2.03 0.433-0.38 1.217-0.57 2.35-0.57v0c0.833 0 1.543 0.233 2.13 0.7 0.58 0.467 0.887 1.05 0.92 1.75zM150.6 69.5c0.233-0.067 0.533-0.157 0.9-0.27 0.367-0.12 0.683-0.197 0.95-0.23v0c2.4-0.067 4.157-0.567 5.27-1.5 1.12-0.933 1.83-2.583 2.13-4.95v0c0.3-2.367 0.6-5.917 0.9-10.65v0l0.2-3.2c0.033-0.767-0.107-1.357-0.42-1.77-0.32-0.42-0.897-0.68-1.73-0.78v0c-1.8-0.2-3.357-0.9-4.67-2.1-1.32-1.2-2.23-2.717-2.73-4.55v0c-0.167-0.567-0.35-1.233-0.55-2v0c-0.4-1.467-0.683-2.567-0.85-3.3v0-0.1c0-0.2 0.067-0.427 0.2-0.68 0.133-0.247 0.267-0.42 0.4-0.52v0c0.533-0.367 1.15-0.55 1.85-0.55v0c0.933 0 1.767 0.323 2.5 0.97 0.733 0.653 1.15 1.463 1.25 2.43v0c0.167 1.5 0.45 3.133 0.85 4.9v0c0.167 0.7 0.483 1.05 0.95 1.05v0c0.367 0 0.683-0.183 0.95-0.55v0c0.867-1.1 1.533-2.167 2-3.2v0c0.567-1.267 1.4-1.9 2.5-1.9v0c0.3 0 0.517 0.017 0.65 0.05v0c1.733 0.333 2.567 1.4 2.5 3.2v0l-0.15 4.65c-0.133 4.133-0.283 7.217-0.45 9.25v0l-0.15 2c-0.2 2.733-0.39 4.86-0.57 6.38-0.187 1.513-0.48 3.037-0.88 4.57v0c-0.5 1.933-1.417 3.377-2.75 4.33-1.333 0.947-2.9 1.42-4.7 1.42v0c-1.433 0-2.867-0.283-4.3-0.85v0c-0.3-0.133-0.65-0.307-1.05-0.52-0.4-0.22-0.7-0.397-0.9-0.53v0z" fill="#000000" fill-rule="nonzero" stroke="none" stroke-width="1" stroke-linecap="butt" stroke-linejoin="miter" stroke-miterlimit="10" stroke-dasharray="" stroke-dashoffset="0" font-family="none" font-weight="none" font-size="none" text-anchor="none" style="mix-blend-mode: normal" data-fill-palette-color="primary" opacity="1"></path></g></svg></g></svg></g></svg></g></svg></g></svg></g><defs></defs></svg><rect width="362.8878447935469" height="247.2" fill="none" stroke="none" visibility="hidden"></rect></g></svg></g></svg>